<svg xmlns="http://www.w3.org/2000/svg" viewBox="0 0 256 256" focusable="false" color="var(--token-b7e0ee39-7195-4e97-994f-cec289c7aee4, rgb(0, 0, 0))" style="user-select: none; width: 100%; height: 100%; display: inline-block; fill: var(--token-b7e0ee39-7195-4e97-994f-cec289c7aee4, rgb(255, 255, 255)); color: var(--token-b7e0ee39-7195-4e97-994f-cec289c7aee4, rgb(255, 255, 255)); flex-shrink: 0;"><g color="var(--token-b7e0ee39-7195-4e97-994f-cec289c7aee4, rgb(255, 255, 255))" weight="bold"><path d="M208,36H48A20,20,0,0,0,28,56V114.8c0,92.36,78.1,123,93.76,128.18a19.6,19.6,0,0,0,12.48,0C149.9,237.78,228,207.16,228,114.8V56A20,20,0,0,0,208,36Zm-4,78.8c0,73.56-60.53,99.53-76,105-15.47-5.42-76-31.39-76-104.95V60H204ZM79.51,144.49a12,12,0,1,1,17-17L112,143l47.51-47.51a12,12,0,0,1,17,17l-56,56a12,12,0,0,1-17,0Z"></path></g></svg>