<svg width="101" height="21" viewBox="0 0 101 21" fill="none" xmlns="http://www.w3.org/2000/svg" id="svg-1761853826_941">
<path d="M10.1 0L12.3676 6.97893H19.7057L13.769 11.2921L16.0366 18.2711L10.1 13.9579L4.16337 18.2711L6.43096 11.2921L0.494329 6.97893H7.83241L10.1 0Z" fill="#FF8A00"></path>
<path d="M30.3 0L32.5676 6.97893H39.9057L33.9691 11.2921L36.2366 18.2711L30.3 13.9579L24.3634 18.2711L26.631 11.2921L20.6943 6.97893H28.0324L30.3 0Z" fill="#FF8A00"></path>
<path d="M50.5 0L52.7676 6.97893H60.1057L54.1691 11.2921L56.4367 18.2711L50.5 13.9579L44.5634 18.2711L46.831 11.2921L40.8944 6.97893H48.2324L50.5 0Z" fill="#FF8A00"></path>
<path d="M70.7 0L72.9676 6.97893H80.3056L74.369 11.2921L76.6366 18.2711L70.7 13.9579L64.7633 18.2711L67.0309 11.2921L61.0943 6.97893H68.4324L70.7 0Z" fill="#FF8A00"></path>
<path d="M90.9 0L93.1676 6.97893H100.506L94.569 11.2921L96.8366 18.2711L90.9 13.9579L84.9634 18.2711L87.2309 11.2921L81.2943 6.97893H88.6324L90.9 0Z" fill="#FF8A00"></path>
</svg>